<svg xmlns="http://www.w3.org/2000/svg" fill="none" viewBox="0 0 160 82"><circle cx="134.972" cy="6.789" r=".811" fill="currentColor" stroke="currentColor" stroke-width="1.55"/><circle cx="158.244" cy="28.775" r=".811" fill="currentColor" stroke="currentColor" stroke-width=".254"/><circle cx="1.756" cy="17.381" r=".811" fill="currentColor" stroke="currentColor" stroke-width=".254"/><circle cx="22.496" cy="53.311" r=".811" fill="currentColor" stroke="currentColor" stroke-width=".254"/><circle cx="130.664" cy="32.938" r=".811" fill="currentColor" stroke="currentColor" stroke-width=".254"/><circle cx="114.664" cy="80.938" r=".811" fill="currentColor" stroke="currentColor" stroke-width=".254"/><circle cx="34.664" cy=".938" r=".811" fill="currentColor" stroke="currentColor" stroke-width=".254"/><circle cx="3.056" cy="63.868" r=".811" fill="currentColor" stroke="currentColor" stroke-width="1.55"/><circle cx="23.667" cy="28.035" r="2.995" fill="currentColor" stroke="currentColor" stroke-width="1.621"/><circle cx="130.9" cy="59.161" r="1.776" fill="currentColor" stroke="currentColor" stroke-width="1.621"/><path stroke="currentColor" stroke-linecap="round" stroke-linejoin="round" stroke-width="2.5" d="M93.6096 45.2032C92.2583 52.05 86.3732 57.2032 79.318 57.2032C71.2638 57.2032 64.7346 50.4876 64.7346 42.2032C64.7346 34.4252 70.4902 28.0299 77.8596 27.2773"/><path stroke="currentColor" stroke-linecap="round" stroke-linejoin="round" stroke-width="2.5" d="M71.2973 39.2031C70.8946 39.2031 70.5681 38.8673 70.5681 38.4531C70.5681 38.0389 70.8946 37.7031 71.2973 37.7031C71.7 37.7031 72.0264 38.0389 72.0264 38.4531C72.0264 38.8673 71.7 39.2031 71.2973 39.2031Z"/><path stroke="currentColor" stroke-linecap="round" stroke-linejoin="round" stroke-width="2.5" d="M72.0266 46.7193L72.0425 46.7012"/><path stroke="currentColor" stroke-linecap="round" stroke-linejoin="round" stroke-width="2.5" d="M77.8596 42.2193L77.8755 42.2012"/><path stroke="currentColor" stroke-linecap="round" stroke-linejoin="round" stroke-width="2.5" d="M77.8596 27.2031L82.8181 31.7031L81.8181 36.7031L90.3181 38.7031C90.3181 38.7031 93.9448 45.4936 93.4635 45.2235"/><path stroke="currentColor" stroke-linecap="round" stroke-width="2.5" d="M90.3181 38.7031L84.3181 42.5V46"/><path stroke="currentColor" stroke-linecap="round" stroke-width="2.5" d="M89.6445 31.0292C89.9439 30.1213 90.4719 28.8332 91.3186 27.7039C92.5185 26.1034 94.9981 28.9831 96.1982 30.9672C96.5515 31.5513 96.1137 32.2039 95.4312 32.2039H90.5385C89.9074 32.2039 89.4469 31.6285 89.6445 31.0292Z"/><path stroke="currentColor" stroke-linecap="round" stroke-width="2.5" d="M83.2938 22.774C82.464 22.156 81.4656 21.3283 81.6837 21.0681C81.7489 20.9904 81.8625 20.9754 81.9516 20.9268C82.2872 20.7438 83.2009 20.2564 84.02 19.916C84.6366 19.6598 85.0797 20.1947 84.9427 20.8482C84.8424 21.3268 84.7609 21.8147 84.6584 22.2922C84.5236 22.9207 83.8093 23.1579 83.2938 22.774Z"/><path stroke="currentColor" stroke-width="2.5" d="M80.0733 51.6799C69.6853 53.3897 60.8966 52.5424 60.4432 49.7874C60.2001 48.3103 62.4022 46.5848 66.0984 45.0383"/><path stroke="currentColor" stroke-width="2.5" d="M91.3095 40.9009C95.3225 41.1787 97.9736 42.1083 98.2173 43.5889C98.6707 46.3439 90.6173 49.9634 80.2293 51.6732L79.0026 51.8751"/><path stroke="currentColor" stroke-linecap="round" stroke-linejoin="round" stroke-width="2.5" d="M60.8181 19.2031H48.8181V26.2031"/><path stroke="currentColor" stroke-linecap="round" stroke-linejoin="round" stroke-width="2.5" d="M109.818 39.2031V44.2031"/><path stroke="currentColor" stroke-linecap="round" stroke-linejoin="round" stroke-width="2.5" d="M97.8181 19.2031H109.818V26.2031"/><path stroke="currentColor" stroke-linecap="round" stroke-linejoin="round" stroke-width="2.5" d="M60.8181 64.2031H48.8181V56.2031"/><path stroke="currentColor" stroke-linecap="round" stroke-linejoin="round" stroke-width="2.5" d="M97.8181 64.2031H109.818V56.2031"/><path stroke="currentColor" stroke-linecap="round" stroke-linejoin="round" stroke-width="2.5" d="M48.8181 37V41"/><path stroke="currentColor" stroke-linecap="round" stroke-linejoin="round" stroke-width="2.5" d="M48.8181 45.0101L48.8281 44.999"/><circle cx="48.818" cy="41" r="8.75" stroke="currentColor" stroke-width="2.5"/></svg>